:version 1.10
:name ASF
:units
  mass 1
  length 1
  angle deg
:documentation
  ASF file generated by Kaydara
:root
  axis xyz
  order  tx ty tz rx ry rz
  position 0 0 0
  orientation 0 0 0
:bonedata
  begin
    id 1
    name RightUpLegDummy
    direction -0.718183 -0.695806 0.00816078
    length 4.904
    axis 0 0 0 xyz
  end
  begin
    id 2
    name RightUpLeg
    direction -0.0736652 -0.994202 0.0783343
    length 17.4976
    axis -2.72909 -3.00389 -4.00133 xyz
    dof rx ry rz
  end
  begin
    id 3
    name RightLeg
    direction -0.0389037 -0.994596 -0.0962598
    length 16.5821
    axis 3.95836 -18.5909 -4.46993 xyz
    dof rx ry rz
  end
  begin
    id 4
    name RightFoot
    direction -0.311643 -0.412678 0.855906
    length 3.77069
    axis -1.99483 -18.8351 -3.27644 xyz
    dof rx ry rz
  end
  begin
    id 5
    name RightToes
    direction -0.317852 0.0389852 0.947339
    length 3.85082
    axis -2.00228 -18.1713 -3.25211 xyz
    dof rx ry rz
  end
  begin
    id 6
    name SpineDummy
    direction 8.3039e-015 1 4.44677e-016
    length 4.6813
    axis 0 0 0 xyz
  end
  begin
    id 7
    name Spine
    direction -0.000262373 0.999988 0.00493267
    length 10.1015
    axis -0.00246081 0.00062579 0.0150362 xyz
    dof rx ry rz
  end
  begin
    id 8
    name Spine1
    direction 0 0 0
    length 0
    axis -0.00349562 0.000650293 0.0196666 xyz
    dof rx ry rz
  end
  begin
    id 9
    name HEadDummy
    direction -0.000343232 0.999999 0.00123745
    length 3.43865
    axis -0.00349562 0.000650293 0.0196666 xyz
  end
  begin
    id 10
    name HEad
    direction -0.0461221 0.980933 0.188796
    length 5.12695
    axis -0.00351404 -7.04812 0.0199272 xyz
    dof rx ry rz
  end
  begin
    id 11
    name LeftShoulder1Dummy
    direction 0.998904 -0.0399089 -0.0244534
    length 3.5433
    axis -0.00349562 0.000650293 0.0196666 xyz
  end
  begin
    id 12
    name LeftShoulder1
    direction 0.99951 1.64443e-005 0.0312999
    length 4.05031
    axis -0.00349562 0.000650293 0.0196666 xyz
    dof rx ry rz
  end
  begin
    id 13
    name LeftArm
    direction 0.984791 0.0515299 0.165927
    length 12.9126
    axis -64.823 -10.7743 5.20463 xyz
    dof rx ry rz
  end
  begin
    id 14
    name LeftForeArm
    direction 0.984968 0.0534808 0.16425
    length 10.8596
    axis -30.0462 -7.70601 1.87451 xyz
    dof rx ry rz
  end
  begin
    id 15
    name LeftHand
    direction 0.975871 0.0289682 0.216418
    length 6.62295
    axis -20.1348 -6.98077 1.86072 xyz
    dof rx ry rz
  end
  begin
    id 16
    name RightShoulderDummy
    direction -0.998877 -0.0405946 -0.0244307
    length 3.5433
    axis -0.00349562 0.000650293 0.0196666 xyz
  end
  begin
    id 17
    name RightShoulder
    direction -0.998933 -0.0249743 -0.0388558
    length 4.05031
    axis -0.0205316 -4.02113 1.41395 xyz
    dof rx ry rz
  end
  begin
    id 18
    name RightArm
    direction -0.997559 0.068664 0.0127103
    length 12.9638
    axis -67.3882 1.84188 -6.15987 xyz
    dof rx ry rz
  end
  begin
    id 19
    name RightForeArm
    direction -0.991508 0.0912848 0.0926241
    length 10.8312
    axis -22.1975 3.41087 -4.28711 xyz
    dof rx ry rz
  end
  begin
    id 20
    name RightHand
    direction -0.989262 0.0600788 0.133232
    length 6.57864
    axis -12.2911 2.17515 -4.39675 xyz
    dof rx ry rz
  end
  begin
    id 21
    name LeftUpLegDummy
    direction 0.718183 -0.695806 0.00816078
    length 4.904
    axis 0 0 0 xyz
  end
  begin
    id 22
    name LeftUpLeg
    direction 0.0831398 -0.99469 0.0606531
    length 17.4976
    axis -1.71016 2.29552 4.63832 xyz
    dof rx ry rz
  end
  begin
    id 23
    name LeftLeg
    direction 0.0498442 -0.991778 -0.117862
    length 16.5821
    axis 5.13757 15.5727 5.13348 xyz
    dof rx ry rz
  end
  begin
    id 24
    name LeftFoot
    direction 0.269026 -0.433896 0.85986
    length 3.77069
    axis -0.576502 15.6961 4.10267 xyz
    dof rx ry rz
  end
  begin
    id 25
    name LeftToes
    direction 0.277311 0.0251143 0.960452
    length 3.85048
    axis -0.576502 15.6961 4.10267 xyz
    dof rx ry rz
  end
:hierarchy
  begin
    root RightUpLegDummy SpineDummy LeftUpLegDummy
    RightUpLegDummy RightUpLeg
    RightUpLeg RightLeg
    RightLeg RightFoot
    RightFoot RightToes
    SpineDummy Spine
    Spine Spine1
    Spine1 HEadDummy LeftShoulder1Dummy RightShoulderDummy
    HEadDummy HEad
    LeftShoulder1Dummy LeftShoulder1
    LeftShoulder1 LeftArm
    LeftArm LeftForeArm
    LeftForeArm LeftHand
    RightShoulderDummy RightShoulder
    RightShoulder RightArm
    RightArm RightForeArm
    RightForeArm RightHand
    LeftUpLegDummy LeftUpLeg
    LeftUpLeg LeftLeg
    LeftLeg LeftFoot
    LeftFoot LeftToes
  end

:SAMPLES-PER-SECOND 30
:FULLY-SPECIFIED
:DEGREES
150
root  -0.31769 39.4625 -6.25557 -3.95435 -9.42694 2.45116
RightUpLeg  -14.1532 -18.4667 -2.02577
RightLeg  26.4081 2.49729 -8.2859
RightFoot  -2.79153 -0.501587 5.52445
RightToes  1.74624e-010 -3.18055e-015 -2.98177e-016
Spine  3.35266 -0.591613 -2.52369
Spine1  7.98453 0.0861243 -3.28091
HEad  -12.0822 8.27356 -3.12048
LeftShoulder1  -3.88251e-019 9.70628e-020 -3.87848e-018
LeftArm  -29.0885 53.4068 -72.5235
LeftForeArm  -2.24743 -18.2229 -0.612694
LeftHand  -0.679484 -3.49085 9.50199
RightShoulder  7.67803 10.5296 36.289
RightArm  12.0691 -45.4463 18.1396
RightForeArm  13.2002 19.9069 -10.5687
RightHand  -1.13677 5.19676 -12.4102
LeftUpLeg  -3.75037 -2.59266 -10.4856
LeftLeg  15.0216 17.6207 8.86283
LeftFoot  -8.45555 -0.150045 3.14057
LeftToes  7.37594e-011 2.64622e-011 -6.25182e-011
151
root  -0.258628 39.4535 -6.2827 -3.31811 -10.5886 1.91519
RightUpLeg  -17.2072 -19.9878 -1.29315
RightLeg  29.9241 4.93778 -7.86858
RightFoot  -0.372665 -0.690657 6.00383
RightToes  1.74624e-010 -3.18055e-015 -2.98177e-016
Spine  3.8125 -0.25083 -0.173938
Spine1  6.60446 0.874011 -5.38946
HEad  -11.8975 7.72856 -3.02423
LeftShoulder1  -3.88251e-019 9.70628e-020 -3.87848e-018
LeftArm  -30.2402 53.7956 -72.7642
LeftForeArm  -0.724736 -16.7492 -0.830422
LeftHand  -0.785238 -3.31687 11.1509
RightShoulder  7.5754 10.4543 35.9407
RightArm  9.87139 -46.1488 18.1609
RightForeArm  12.9753 18.9397 -9.78854
RightHand  -1.04033 4.27705 -12.3974
LeftUpLeg  -4.69189 -2.36094 -9.91355
LeftLeg  15.7217 18.366 9.34305
LeftFoot  -8.74552 -0.132822 2.87515
LeftToes  7.37594e-011 2.64622e-011 -6.25182e-011
152
root  -0.219601 39.384 -6.33578 -3.54581 -12.2437 2.01441
RightUpLeg  -20.5422 -20.0668 -1.4927
RightLeg  35.0126 7.52384 -7.34343
RightFoot  3.23202 -1.12023 7.59114
RightToes  1.74624e-010 -3.18055e-015 -2.98177e-016
Spine  5.13134 0.387445 0.35243
Spine1  5.34667 1.64081 -6.32111
HEad  -11.9044 7.58048 -2.89847
LeftShoulder1  -3.88251e-019 9.70628e-020 -3.87848e-018
LeftArm  -31.13 54.3657 -73.4978
LeftForeArm  -0.350971 -15.6175 -0.935529
LeftHand  -0.914157 -3.48423 12.7072
RightShoulder  7.46495 10.4133 35.4733
RightArm  8.55399 -45.9331 18.0892
RightForeArm  13.9367 17.8014 -8.85591
RightHand  -0.923903 4.05671 -11.2929
LeftUpLeg  -4.84949 -1.82223 -9.77845
LeftLeg  16.6092 19.4156 9.63607
LeftFoot  -9.22925 -0.112837 2.60708
LeftToes  7.37594e-011 2.64622e-011 -6.25182e-011
153
root  -0.25257 39.276 -6.39459 -4.72601 -13.3472 2.9988
RightUpLeg  -22.9747 -19.8618 -2.8333
RightLeg  39.8312 9.3722 -6.87552
RightFoot  6.31545 -1.3044 7.41852
RightToes  1.74624e-010 -3.18055e-015 -2.98177e-016
Spine  6.21869 0.806205 -1.83437
Spine1  5.69774 1.71771 -5.17541
HEad  -12.6787 8.15229 -2.74798
LeftShoulder1  -3.88251e-019 9.70628e-020 -3.87848e-018
LeftArm  -31.5311 54.8439 -73.983
LeftForeArm  -1.06389 -15.1716 -1.05878
LeftHand  -0.942764 -3.65727 12.8366
RightShoulder  7.46873 10.4529 35.4038
RightArm  7.29746 -44.2238 18.5039
RightForeArm  17.086 16.4217 -7.793
RightHand  -0.872851 4.56523 -10.1455
LeftUpLeg  -3.98878 -1.77533 -10.478
LeftLeg  17.1923 20.5859 9.71373
LeftFoot  -9.58999 -0.0988812 2.38778
LeftToes  7.37594e-011 2.64622e-011 -6.25182e-011
154
root  -0.331969 39.1777 -6.44858 -6.10482 -13.5025 4.10076
RightUpLeg  -24.2808 -20.6165 -4.0661
RightLeg  42.7084 8.67144 -8.25867
RightFoot  7.93286 -0.831305 4.24394
RightToes  1.74624e-010 -3.18055e-015 -2.98177e-016
Spine  6.70364 0.777105 -4.65467
Spine1  7.2545 1.18618 -3.4449
HEad  -14.082 9.09323 -2.47762
LeftShoulder1  -3.88251e-019 9.70628e-020 -3.87848e-018
LeftArm  -31.0739 55.0284 -73.5133
LeftForeArm  -1.31053 -14.9986 -1.26539
LeftHand  -0.854572 -3.77828 11.508
RightShoulder  7.51732 10.4864 35.5757
RightArm  5.95624 -42.2969 19.5497
RightForeArm  20.1268 15.4029 -7.19009
RightHand  -0.902912 4.82843 -10.2317
LeftUpLeg  -2.87805 -2.13199 -11.4405
LeftLeg  17.5223 21.27 9.84803
LeftFoot  -9.72049 -0.0916025 2.22159
LeftToes  7.37594e-011 2.64622e-011 -6.25182e-011
